# xmcd CD database file
#
# Track frame offsets:
#	150
#	35295
#	61251
#	106112
#	134593
#	167213
#	204003
#	243869
#	289350
#
# Disc length: 4248 seconds
#
# Revision: 0
# Processed by: cddbd v1.5.2PL0 Copyright (c) Steve Scherf et al.
# Submitted via: CDex 1.83
#
DISCID=78109609
DTITLE=Michel Mainil New Quartet - If you missed the beginning
DYEAR=2015
DGENRE=Jazz
TTITLE0=Night dreamer
TTITLE1=Strode rode
TTITLE2=Soul eyes
TTITLE3=Serenity
TTITLE4=Simone
TTITLE5=Secret Love
TTITLE6=It never entered my mind
TTITLE7=DC Blues
TTITLE8=Cedar's Blues
EXTD=YEAR: 2015
EXTT0=
EXTT1=
EXTT2=
EXTT3=
EXTT4=
EXTT5=
EXTT6=
EXTT7=
EXTT8=
PLAYORDER=
